<?xml version="1.0" standalone="no"?>
<!DOCTYPE svg PUBLIC "-//W3C//DTD SVG 1.1//EN" "http://www.w3.org/Graphics/SVG/1.1/DTD/svg11.dtd" >
<svg xmlns="http://www.w3.org/2000/svg" xmlns:xlink="http://www.w3.org/1999/xlink" version="1.1">
<metadata>
Created by FontForge 20200427 at Fri Oct 27 00:40:41 2017
 By www
Copyright (c) 2016 by Chris Simpson.
</metadata>
<defs>
<font id="Metropolis-Regular" horiz-adv-x="1212" >
  <font-face 
    font-family="Metropolis"
    font-weight="400"
    font-stretch="normal"
    units-per-em="2048"
    panose-1="0 0 5 0 0 0 0 0 0 0"
    ascent="1628"
    descent="-420"
    x-height="1059"
    cap-height="1407"
    bbox="-117 -393 2138 1976"
    underline-thickness="40"
    underline-position="-472"
    unicode-range="U+0020-25FC"
  />
<missing-glyph horiz-adv-x="748" 
d="M68 0v1365h544v-1365h-544zM136 68h408v1229h-408v-1229z" />
    <glyph glyph-name=".notdef" horiz-adv-x="748" 
d="M68 0v1365h544v-1365h-544zM136 68h408v1229h-408v-1229z" />
    <glyph glyph-name="glyph1" horiz-adv-x="0" 
 />
    <glyph glyph-name="glyph2" horiz-adv-x="682" 
 />
    <glyph glyph-name="space" unicode=" " horiz-adv-x="593" 
 />
    <glyph glyph-name="exclam" unicode="!" horiz-adv-x="559" 
d="M170 88q0 43 33 76t80 33q44 0 76 -33t32 -76q0 -46 -32 -79.5t-76 -33.5q-47 0 -80 33.5t-33 79.5zM190 1407h189l-41 -1012h-109z" />
    <glyph glyph-name="quotedbl" unicode="&#x22;" horiz-adv-x="847" 
d="M145 1288q0 38 28.5 66t66.5 28t66 -28t28 -66q0 -46 -7.5 -113.5t-23 -171t-18.5 -124.5h-90q-4 26 -19 126t-23 168.5t-8 114.5zM514 1288q0 38 28 66t66 28t66 -28t28 -66q0 -46 -7.5 -113.5t-23 -171t-18.5 -124.5h-90q-3 21 -18.5 124.5t-23 171t-7.5 113.5z" />
    <glyph glyph-name="numbersign" unicode="#" horiz-adv-x="1380" 
d="M80 367l31 125h231l107 421h-234l31 125h235l92 369h136l-93 -369h308l92 369h135l-92 -369h239l-30 -125h-242l-106 -421h241l-31 -125h-241l-92 -367h-135l92 367h-308l-92 -367h-135l92 367h-231zM477 492h307l107 421h-307z" />
    <glyph glyph-name="dollar" unicode="$" horiz-adv-x="1255" 
d="M94 201l101 125q157 -157 346 -193v518q-98 25 -167 55t-123.5 74t-81 106.5t-26.5 145.5q0 153 112 264.5t286 133.5v124h159v-124q223 -27 408 -197l-98 -125q-148 141 -310 170v-492q83 -20 146.5 -42.5t122 -56t95.5 -75t59 -99.5t22 -130q0 -165 -116 -277.5
t-329 -125.5v-132h-159v136q-260 33 -447 217zM305 1044q0 -81 58 -130t178 -85v453q-104 -19 -170 -86t-66 -152zM700 125q134 10 208.5 80t74.5 164q0 92 -68.5 146t-214.5 95v-485z" />
    <glyph glyph-name="percent" unicode="%" horiz-adv-x="1630" 
d="M96 1063q0 153 93 254.5t235 101.5q144 0 235 -101.5t91 -250.5q0 -151 -92.5 -251.5t-235.5 -100.5t-234.5 101t-91.5 247zM225 1065q0 -101 57 -170.5t142 -69.5q86 0 141.5 68.5t55.5 171.5q0 105 -56.5 174.5t-142.5 69.5t-141.5 -69t-55.5 -175zM268 0l963 1407h135
l-963 -1407h-135zM879 332q0 148 91.5 250t235.5 102q143 0 234.5 -102t91.5 -248q0 -151 -93 -252.5t-235 -101.5q-141 0 -233 100.5t-92 251.5zM1008 334q0 -105 55.5 -174.5t142.5 -69.5t142 68.5t55 173.5q0 103 -56.5 172t-142.5 69t-141 -69t-55 -170z" />
    <glyph glyph-name="ampersand" unicode="&#x26;" horiz-adv-x="1372" 
d="M84 373q0 269 322 411q-119 165 -119 310q0 140 101 234.5t257 94.5q140 0 236 -96t96 -229q0 -68 -24.5 -122t-73.5 -96t-106 -73t-140 -64q122 -144 321 -352q98 148 160 316l133 -60q-101 -224 -194 -356l233 -238l-145 -67l-185 186q-190 -197 -430 -197
q-192 0 -317 108.5t-125 289.5zM238 377q0 -121 84.5 -192.5t209.5 -71.5q177 0 326 159q-240 249 -373 410q-247 -115 -247 -305zM440 1094q0 -112 111 -252q148 58 210 112.5t62 139.5q0 82 -50.5 137t-127.5 55q-90 0 -147.5 -51.5t-57.5 -140.5z" />
    <glyph glyph-name="quotesingle" unicode="'" horiz-adv-x="479" 
d="M145 1288q0 38 28.5 66t66.5 28t66 -28t28 -66q0 -46 -7.5 -113.5t-23 -171t-18.5 -124.5h-90q-4 26 -19 126t-23 168.5t-8 114.5z" />
    <glyph glyph-name="parenleft" unicode="(" horiz-adv-x="731" 
d="M127 543q0 263 110.5 490.5t317.5 400.5l82 -86q-174 -179 -260 -370.5t-86 -434.5q0 -242 86 -434t260 -369l-82 -88q-207 173 -317.5 401t-110.5 490z" />
    <glyph glyph-name="parenright" unicode=")" horiz-adv-x="731" 
d="M94 -260q174 177 260 369t86 434q0 243 -86 434.5t-260 370.5l82 86q207 -173 317.5 -400.5t110.5 -490.5q0 -262 -110.5 -490t-317.5 -401z" />
    <glyph glyph-name="asterisk" unicode="*" horiz-adv-x="837" 
d="M123.5 976q4.5 19 19.5 28q43 25 131.5 58.5t106.5 41.5q-18 8 -106.5 41.5t-131.5 58.5q-15 9 -19.5 28t5.5 38q10 18 30.5 24.5t35.5 -2.5q43 -25 114 -83t90 -72q-2 14 -17 109.5t-15 146.5q0 19 14.5 32t36.5 13t36.5 -13t14.5 -32q0 -51 -15.5 -145t-17.5 -111
q18 13 90 71.5t115 83.5q15 9 35.5 2.5t30.5 -24.5q10 -19 5 -38t-20 -28q-43 -25 -131.5 -59t-105.5 -41q17 -7 105.5 -41t131.5 -59q15 -9 20 -28t-5 -38t-30.5 -25.5t-35.5 2.5q-43 25 -114 83.5t-91 72.5q2 -17 17.5 -111t15.5 -145q0 -19 -14.5 -32t-36.5 -13t-36.5 13
t-14.5 32q0 51 15 146.5t17 109.5q-20 -15 -90.5 -73t-113.5 -83q-15 -9 -35.5 -2.5t-30.5 25.5t-5.5 38z" />
    <glyph glyph-name="plus" unicode="+" horiz-adv-x="1214" 
d="M137 608v152h393v395h154v-395h393v-152h-393v-393h-154v393h-393z" />
    <glyph glyph-name="comma" unicode="," horiz-adv-x="540" 
d="M158 88q0 44 32 76.5t80 32.5q57 0 91 -46t34 -118q0 -62 -33 -126.5t-124 -178.5l-76 57q81 93 106 190q-45 0 -77.5 33.5t-32.5 79.5z" />
    <glyph glyph-name="hyphen" unicode="-" horiz-adv-x="759" 
d="M115 481v150h530v-150h-530z" />
    <glyph glyph-name="period" unicode="." horiz-adv-x="518" 
d="M150 88q0 44 33 76.5t79 32.5q44 0 76.5 -33t32.5 -76q0 -46 -32.5 -79.5t-76.5 -33.5q-47 0 -79.5 33.5t-32.5 79.5z" />
    <glyph glyph-name="slash" unicode="/" horiz-adv-x="849" 
d="M-33 -152l719 1674h174l-719 -1674h-174z" />
    <glyph glyph-name="zero" unicode="0" horiz-adv-x="1411" 
d="M121 705q0 211 74.5 376.5t208 258t303.5 92.5q169 0 302 -92.5t207 -258.5t74 -376q0 -211 -74 -378t-207 -259.5t-302 -92.5q-170 0 -303.5 92.5t-208 259.5t-74.5 378zM283 705q0 -255 119 -418.5t305 -163.5q122 0 218.5 74t149.5 207t53 301q0 255 -117.5 417
t-303.5 162t-305 -162t-119 -417z" />
    <glyph glyph-name="one" unicode="1" horiz-adv-x="722" 
d="M53 1171l346 236h129v-1407h-159v1212l-246 -159z" />
    <glyph glyph-name="two" unicode="2" horiz-adv-x="1206" 
d="M100 0v133l514 438q148 126 214.5 233t66.5 212q0 123 -87 197.5t-206 74.5q-217 0 -377 -219l-112 92q191 271 495 271q188 0 318.5 -115t130.5 -299q0 -142 -76.5 -267.5t-255.5 -279.5l-369 -319h715v-152h-971z" />
    <glyph glyph-name="three" unicode="3" horiz-adv-x="1200" 
d="M82 217l111 105q72 -93 174.5 -147t226.5 -54q148 0 238 74t90 194q0 122 -97 186t-266 64h-149v147l151 -2q145 -2 237.5 64.5t92.5 183.5q0 110 -89 182t-222 72q-111 0 -199 -51t-168 -148l-107 97q186 248 482 248q202 0 333.5 -106.5t131.5 -274.5q0 -127 -77 -211
t-196 -119q57 -13 108 -39t96.5 -66.5t72 -101t26.5 -133.5q0 -178 -135.5 -292t-353.5 -114q-165 0 -297.5 67t-214.5 175z" />
    <glyph glyph-name="four" unicode="4" horiz-adv-x="1275" 
d="M82 475l698 932h185v-920h211v-145h-211v-342h-160v342h-703zM264 487h541v727z" />
    <glyph glyph-name="five" unicode="5" horiz-adv-x="1226" 
d="M115 199l104 116q180 -196 397 -196q145 0 238.5 89t93.5 224t-94 219t-242 84q-169 0 -313 -108l-117 57l21 723h831v-152h-676l-14 -473q142 95 301 95q96 0 180 -30t147.5 -84.5t100.5 -138.5t37 -186q0 -207 -140.5 -335t-359.5 -128q-298 0 -495 224z" />
    <glyph glyph-name="six" unicode="6" horiz-adv-x="1275" 
d="M123 682q0 155 44.5 294t120 239t181 158.5t223.5 58.5q225 0 400 -168l-88 -125q-73 72 -147 109.5t-169 37.5q-111 0 -203.5 -80t-146 -219t-53.5 -305v-18q65 102 169 158.5t228 56.5q130 0 235.5 -50.5t170.5 -152t65 -236.5q0 -198 -139.5 -331.5t-356.5 -133.5
q-139 0 -243.5 54t-167 151.5t-93 223t-30.5 278.5zM303 479q32 -168 121 -267t231 -99q101 0 179.5 47.5t117.5 119.5t39 152q0 141 -96.5 225t-241.5 84q-133 0 -228.5 -72t-121.5 -190z" />
    <glyph glyph-name="seven" unicode="7" horiz-adv-x="1228" 
d="M121 1255v152h952v-121l-606 -1286h-184l600 1255h-762z" />
    <glyph glyph-name="eight" unicode="8" horiz-adv-x="1241" 
d="M106 369q0 126 87.5 220t224.5 138q-127 48 -201 132t-74 200q0 85 40.5 156.5t107.5 118t152.5 72.5t177.5 26q127 0 235.5 -44.5t176 -131.5t67.5 -199q0 -120 -77 -203t-198 -127q136 -46 223 -139t87 -219q0 -117 -68.5 -207.5t-185 -138.5t-260.5 -48
q-145 0 -262 48.5t-185 138.5t-68 207zM268 379q0 -114 102 -186t251 -72t250.5 72t101.5 186q0 61 -34 113.5t-87 85.5t-113.5 52t-117.5 21q-56 -2 -116.5 -21t-114 -52t-88 -85.5t-34.5 -113.5zM305 1042q0 -58 30 -106.5t78.5 -78t101.5 -46.5t106 -20q54 3 108 20.5
t101.5 47.5t77.5 78t30 105q0 105 -92 174.5t-225 69.5t-224.5 -69.5t-91.5 -174.5z" />
    <glyph glyph-name="nine" unicode="9" horiz-adv-x="1275" 
d="M123 967q0 198 139 331.5t356 133.5q139 0 243.5 -54t167.5 -151.5t93.5 -223t30.5 -278.5q0 -155 -44.5 -294t-120 -239t-181 -158.5t-223.5 -58.5q-225 0 -400 168l88 125q73 -72 147 -109.5t169 -37.5q111 0 203.5 80t146 219t53.5 305v18q-65 -102 -169 -158.5
t-228 -56.5q-130 0 -235.5 50.5t-170.5 152t-65 236.5zM285 975q0 -141 96.5 -225t241.5 -84q133 0 228.5 72t121.5 190q-32 168 -121 267t-231 99q-101 0 -179.5 -47.5t-117.5 -119.5t-39 -152z" />
    <glyph glyph-name="colon" unicode=":" horiz-adv-x="518" 
d="M150 88q0 44 33 76.5t79 32.5q44 0 76.5 -33t32.5 -76q0 -46 -32.5 -79.5t-76.5 -33.5q-47 0 -79.5 33.5t-32.5 79.5zM150 938q0 44 33 76.5t79 32.5q44 0 76.5 -33t32.5 -76q0 -46 -32.5 -79.5t-76.5 -33.5q-47 0 -79.5 33.5t-32.5 79.5z" />
    <glyph glyph-name="semicolon" unicode=";" horiz-adv-x="540" 
d="M158 88q0 44 32 76.5t80 32.5q57 0 91 -46t34 -118q0 -62 -33 -126.5t-124 -178.5l-76 57q81 93 106 190q-45 0 -77.5 33.5t-32.5 79.5zM158 938q0 44 33 76.5t79 32.5q44 0 76.5 -33t32.5 -76q0 -46 -32.5 -79.5t-76.5 -33.5q-47 0 -79.5 33.5t-32.5 79.5z" />
    <glyph glyph-name="less" unicode="&#x3c;" horiz-adv-x="1200" 
d="M113 643v121l931 463v-144l-780 -378l780 -379v-146z" />
    <glyph glyph-name="equal" unicode="=" horiz-adv-x="1214" 
d="M137 383v152h940v-152h-940zM137 834v151h940v-151h-940z" />
    <glyph glyph-name="greater" unicode="&#x3e;" horiz-adv-x="1200" 
d="M156 180v146l780 379l-780 378v144l931 -463v-121z" />
    <glyph glyph-name="question" unicode="?" horiz-adv-x="1038" 
d="M55 1196q191 236 463 236q191 0 310.5 -107.5t119.5 -267.5q0 -137 -114.5 -249.5t-294.5 -150.5v-262h-162v383q179 15 294 89.5t115 174.5q0 99 -76 171.5t-200 72.5q-108 0 -191.5 -51t-158.5 -143zM346 88q0 43 33 76t80 33q44 0 76 -33t32 -76q0 -46 -32 -79.5
t-76 -33.5q-47 0 -80 33.5t-33 79.5z" />
    <glyph glyph-name="at" unicode="@" horiz-adv-x="1804" 
d="M90 530q0 170 69 327.5t184 272.5t273.5 183.5t329.5 68.5q154 0 296 -59t245.5 -157t165 -233t61.5 -280q0 -120 -32 -217t-85 -155.5t-117.5 -89.5t-133.5 -31q-95 0 -157 47t-79 129q-61 -79 -146.5 -127.5t-185.5 -48.5q-149 0 -244.5 98t-95.5 256q0 104 41 200.5
t108 164t153.5 107.5t174.5 40q102 0 173 -46.5t108 -119.5l27 135l137 -10q-15 -76 -35 -179.5t-31 -159t-22.5 -115.5t-16 -92.5t-4.5 -47.5q0 -64 36.5 -99.5t98.5 -35.5q45 0 88 22.5t81 67.5t61.5 124.5t23.5 182.5q0 131 -56 252.5t-150 209.5t-223.5 141t-268.5 53
q-155 0 -298 -62.5t-247 -167t-166.5 -248.5t-62.5 -299q0 -112 36.5 -218t102.5 -192t153.5 -151t195.5 -101t221 -36q126 0 228 29t214 96l37 -55q-119 -75 -232 -108.5t-252 -33.5q-208 0 -388.5 104t-287 281.5t-106.5 382.5zM586 522q0 -109 62.5 -175t166.5 -66
q140 0 230 100.5t106 255.5q12 126 -43 197t-174 71q-141 0 -244.5 -114.5t-103.5 -268.5z" />
    <glyph glyph-name="A" unicode="A" horiz-adv-x="1546" 
d="M66 0l620 1407h174l621 -1407h-174l-142 319h-784l-141 -319h-174zM446 471h654l-326 739z" />
    <glyph glyph-name="B" unicode="B" horiz-adv-x="1396" 
d="M193 0v1407h645q170 0 278.5 -98t108.5 -252q0 -107 -50 -178.5t-151 -130.5q123 -62 189.5 -155.5t66.5 -207.5q0 -169 -117.5 -277t-300.5 -108h-669zM352 145h469q130 0 213.5 73.5t83.5 187.5t-83.5 187t-213.5 73h-469v-521zM352 811h445q117 0 191.5 63.5
t74.5 161.5q0 99 -74.5 162.5t-191.5 63.5h-445v-451z" />
    <glyph glyph-name="C" unicode="C" horiz-adv-x="1392" 
d="M106 705q0 145 58.5 279.5t156 232.5t230.5 156.5t276 58.5q144 0 275 -56.5t231 -158.5l-108 -111q-78 84 -181.5 131t-216.5 47q-149 0 -278 -79t-205 -212.5t-76 -287.5q0 -116 45 -223.5t120.5 -186t179 -125.5t214.5 -47q113 0 216.5 47t181.5 131l108 -111
q-101 -101 -232 -158t-274 -57q-191 0 -357.5 99.5t-265 268t-98.5 362.5z" />
    <glyph glyph-name="D" unicode="D" horiz-adv-x="1560" 
d="M193 0v1407h475q220 0 394 -89t271 -249.5t97 -363.5q0 -204 -97 -364.5t-271 -250.5t-394 -90h-475zM352 145h316q264 0 432 157t168 403q0 161 -76 288t-213 198t-311 71h-316v-1117z" />
    <glyph glyph-name="E" unicode="E" horiz-adv-x="1284" 
d="M162 0v1407h1009v-152h-847v-462h763v-152h-763v-489h847v-152h-1009z" />
    <glyph glyph-name="F" unicode="F" horiz-adv-x="1247" 
d="M162 0v1407h1009v-152h-847v-462h763v-152h-763v-641h-162z" />
    <glyph glyph-name="G" unicode="G" horiz-adv-x="1525" 
d="M106 705q0 145 58.5 279.5t156 232.5t230.5 156.5t276 58.5q148 0 299 -58.5t248 -156.5l-108 -111q-75 80 -198 129t-241 49q-149 0 -278 -79t-205 -212.5t-76 -287.5q0 -116 45 -223.5t120.5 -186t179 -125.5t214.5 -47q98 0 203.5 35.5t183.5 95.5v336h-403v151h563
v-551q-97 -97 -248 -156t-299 -59q-191 0 -357.5 99.5t-265 268t-98.5 362.5z" />
    <glyph glyph-name="H" unicode="H" horiz-adv-x="1472" 
d="M162 0v1407h160v-614h829v614h160v-1407h-160v641h-829v-641h-160z" />
    <glyph glyph-name="I" unicode="I" horiz-adv-x="483" 
d="M162 0v1407h160v-1407h-160z" />
    <glyph glyph-name="J" unicode="J" horiz-adv-x="1105" 
d="M53 209l117 115q41 -89 129.5 -146t185.5 -57q125 0 205 94.5t80 243.5v948h160v-948q0 -212 -125 -348t-320 -136q-125 0 -246.5 65.5t-185.5 168.5z" />
    <glyph glyph-name="K" unicode="K" horiz-adv-x="1351" 
d="M188 0v1407h160v-778l713 778h211l-592 -643l631 -764h-207l-535 655l-221 -233v-422h-160z" />
    <glyph glyph-name="L" unicode="L" horiz-adv-x="1136" 
d="M139 0v1407h160v-1255h768v-152h-928z" />
    <glyph glyph-name="M" unicode="M" horiz-adv-x="1748" 
d="M193 0v1407h159l522 -981l523 981h159v-1407h-159v1063l-523 -981l-522 981v-1063h-159z" />
    <glyph glyph-name="N" unicode="N" horiz-adv-x="1576" 
d="M193 0v1407h159l873 -1145v1145h159v-1407h-159l-873 1145v-1145h-159z" />
    <glyph glyph-name="O" unicode="O" horiz-adv-x="1652" 
d="M106 705q0 145 58.5 279.5t156 232.5t230.5 156.5t276 58.5q144 0 277 -58.5t229.5 -156.5t154.5 -232.5t58 -279.5q0 -194 -97.5 -362.5t-263.5 -268t-358 -99.5q-191 0 -357.5 99.5t-265 268t-98.5 362.5zM268 705q0 -116 45 -223.5t120.5 -186t179 -125.5t214.5 -47
t214.5 47t178 125.5t119.5 186t45 223.5q0 154 -75.5 287.5t-204 212.5t-277.5 79t-278 -79t-205 -212.5t-76 -287.5z" />
    <glyph glyph-name="P" unicode="P" horiz-adv-x="1318" 
d="M162 0v1407h571q220 0 369 -127.5t149 -323.5q0 -129 -68.5 -232.5t-187 -160.5t-262.5 -57h-411v-506h-160zM322 657h383q174 0 279.5 80t105.5 219t-105.5 219t-279.5 80h-383v-598z" />
    <glyph glyph-name="Q" unicode="Q" horiz-adv-x="1652" 
d="M106 705q0 145 58.5 279.5t156 232.5t230.5 156.5t276 58.5q144 0 277 -58.5t229.5 -156.5t154.5 -232.5t58 -279.5q0 -249 -157 -449l157 -137l-102 -119l-164 143q-202 -168 -453 -168q-191 0 -357.5 99.5t-265 268t-98.5 362.5zM268 705q0 -116 45 -223.5t120.5 -186
t179 -125.5t214.5 -47q186 0 336 121l-219 190l103 119l225 -195q112 154 112 347q0 154 -75.5 287.5t-204 212.5t-277.5 79t-278 -79t-205 -212.5t-76 -287.5z" />
    <glyph glyph-name="R" unicode="R" horiz-adv-x="1331" 
d="M162 0v1407h571q220 0 369 -127.5t149 -323.5q0 -163 -106.5 -281.5t-276.5 -154.5l365 -520h-182l-357 506h-372v-506h-160zM322 657h383q174 0 279.5 80t105.5 219t-105.5 219t-279.5 80h-383v-598z" />
    <glyph glyph-name="S" unicode="S" horiz-adv-x="1255" 
d="M94 201l101 125q203 -203 460 -203q155 0 241.5 72t86.5 174q0 106 -89.5 163t-289.5 103q-91 21 -157.5 43t-126.5 54.5t-97 73t-58.5 97.5t-21.5 129q0 170 135 286t336 116q276 0 494 -201l-98 -125q-186 180 -404 180q-128 0 -214.5 -72.5t-86.5 -171.5
q0 -43 17.5 -77t46 -58.5t79.5 -46t103.5 -37t132.5 -34.5q109 -26 186.5 -56.5t143 -77.5t98.5 -115.5t33 -158.5q0 -176 -130 -291t-366 -115q-328 0 -555 224z" />
    <glyph glyph-name="T" unicode="T" horiz-adv-x="1290" 
d="M92 1255v152h1106v-152h-473v-1255h-160v1255h-473z" />
    <glyph glyph-name="U" unicode="U" horiz-adv-x="1527" 
d="M176 584v823h160v-823q0 -203 120.5 -333t307.5 -130t307.5 130t120.5 333v823h160v-823q0 -267 -165 -438t-423 -171t-423 171t-165 438z" />
    <glyph glyph-name="V" unicode="V" horiz-adv-x="1546" 
d="M66 1407h174l534 -1210l533 1210h174l-621 -1407h-174z" />
    <glyph glyph-name="W" unicode="W" horiz-adv-x="2213" 
d="M76 1407h180l389 -1139l373 1139h178l373 -1139l389 1139h180l-481 -1407h-158l-391 1198l-393 -1198h-158z" />
    <glyph glyph-name="X" unicode="X" horiz-adv-x="1427" 
d="M78 0l538 702l-538 705h196l441 -576l440 576h195l-539 -702l539 -705h-197l-440 575l-441 -575h-194z" />
    <glyph glyph-name="Y" unicode="Y" horiz-adv-x="1374" 
d="M37 1407h199l452 -682l457 682h192l-565 -834v-573h-168v573z" />
    <glyph glyph-name="Z" unicode="Z" horiz-adv-x="1308" 
d="M119 0v127l848 1128h-834v152h1053v-127l-850 -1128h858v-152h-1075z" />
    <glyph glyph-name="bracketleft" unicode="[" horiz-adv-x="749" 
d="M166 -236v1739h483v-117h-348v-1505h348v-117h-483z" />
    <glyph glyph-name="backslash" unicode="\" horiz-adv-x="849" 
d="M-10 1522h174l719 -1674h-174z" />
    <glyph glyph-name="bracketright" unicode="]" horiz-adv-x="749" 
d="M100 -119h349v1505h-349v117h484v-1739h-484v117z" />
    <glyph glyph-name="asciicircum" unicode="^" horiz-adv-x="1003" 
d="M111 846l331 561h121l330 -561h-133l-258 448l-260 -448h-131z" />
    <glyph glyph-name="underscore" unicode="_" 
d="M-4 -154h1221v-137h-1221v137z" />
    <glyph glyph-name="grave" unicode="`" horiz-adv-x="667" 
d="M129 1438l162 37l248 -295h-119z" />
    <glyph glyph-name="a" unicode="a" horiz-adv-x="1173" 
d="M102 313q0 155 121 254t295 99q157 0 344 -60v39q0 46 -7.5 87t-27.5 82.5t-51.5 71t-83 48t-117.5 18.5q-121 0 -309 -96l-61 125q204 102 381 102q210 0 320 -119.5t110 -318.5v-645h-154v166q-55 -90 -159 -140.5t-214 -50.5q-170 0 -278.5 92t-108.5 246zM252 319
q0 -96 74.5 -152t189.5 -56t216 58t130 163v162q-153 43 -319 43q-121 0 -206 -62t-85 -156z" />
    <glyph glyph-name="b" unicode="b" horiz-adv-x="1306" 
d="M170 0v1432h154v-572q61 106 160 164.5t225 58.5q210 0 348.5 -155.5t138.5 -397.5q0 -243 -138.5 -399t-348.5 -156q-125 0 -224.5 59t-160.5 165v-199h-154zM324 530q0 -183 99.5 -300t256.5 -117q155 0 254.5 117t99.5 300t-99.5 299.5t-254.5 116.5
q-157 0 -256.5 -116.5t-99.5 -299.5z" />
    <glyph glyph-name="c" unicode="c" horiz-adv-x="1110" 
d="M98 530q0 148 75 275.5t201.5 202.5t272.5 75q106 0 203.5 -41t173.5 -114l-106 -105q-53 58 -123.5 90.5t-147.5 32.5q-158 0 -272.5 -123.5t-114.5 -292.5q0 -170 114.5 -293.5t272.5 -123.5q78 0 150 34t127 95l106 -105q-76 -76 -175.5 -119t-207.5 -43
q-109 0 -210.5 45t-175.5 119.5t-118.5 177t-44.5 213.5z" />
    <glyph glyph-name="d" unicode="d" horiz-adv-x="1306" 
d="M111 530q0 242 138.5 397.5t348.5 155.5q126 0 225 -58.5t160 -164.5v572h154v-1432h-154v199q-61 -106 -160.5 -165t-224.5 -59q-210 0 -348.5 156t-138.5 399zM272 530q0 -183 100 -300t255 -117q157 0 256.5 117t99.5 300t-99.5 299.5t-256.5 116.5
q-155 0 -255 -116.5t-100 -299.5z" />
    <glyph glyph-name="e" unicode="e" horiz-adv-x="1218" 
d="M98 532q0 154 71 281t191 198.5t261 71.5q237 0 369 -165t132 -447h-866q18 -158 120.5 -258t256.5 -100q93 0 188.5 36.5t145.5 90.5l94 -101q-67 -73 -189.5 -118.5t-236.5 -45.5q-105 0 -203 41.5t-172 114t-118 177.5t-44 224zM258 608h713q-16 150 -104 244t-240 94
q-142 0 -244.5 -93t-124.5 -245z" />
    <glyph glyph-name="f" unicode="f" horiz-adv-x="718" 
d="M76 922v137h166v145q0 119 72 195t186 76q109 0 196 -68l-75 -113q-40 43 -111 43q-47 0 -81 -38t-34 -95v-145h260v-137h-260v-922h-153v922h-166z" />
    <glyph glyph-name="g" unicode="g" horiz-adv-x="1302" 
d="M106 582q0 221 137 361t351 140q124 0 223.5 -54t161.5 -152v182h154v-946q0 -204 -146 -334.5t-375 -130.5q-126 0 -240 39t-188 102l68 121q62 -59 152 -92t188 -33q183 0 285 86.5t102 241.5v172q-62 -98 -161.5 -152.5t-223.5 -54.5q-214 0 -351 141.5t-137 362.5z
M268 582q0 -161 100 -264t255 -103q157 0 256.5 103t99.5 264q0 160 -99.5 262t-256.5 102q-155 0 -255 -102t-100 -262z" />
    <glyph glyph-name="h" unicode="h" 
d="M158 0v1432h153v-543q46 86 141.5 140t206.5 54q175 0 286.5 -114.5t111.5 -294.5v-674h-154v653q0 129 -73.5 211t-190.5 82q-133 0 -230.5 -81t-97.5 -191v-674h-153z" />
    <glyph glyph-name="i" unicode="i" horiz-adv-x="460" 
d="M129 1354q0 40 30 70t72 30q41 0 71 -30t30 -70q0 -41 -30 -72t-71 -31q-42 0 -72 30.5t-30 72.5zM154 0v1059h153v-1059h-153z" />
    <glyph glyph-name="j" unicode="j" horiz-adv-x="460" 
d="M-117 -332l25 127q61 -22 131 -22q51 0 83 37t32 96v1153h153v-1153q0 -119 -72 -195t-186 -76q-91 0 -166 33zM129 1354q0 40 30 70t72 30q41 0 71 -30t30 -70q0 -41 -30 -72t-71 -31q-42 0 -72 30.5t-30 72.5z" />
    <glyph glyph-name="k" unicode="k" horiz-adv-x="1112" 
d="M154 0v1432h153v-959l580 586h196l-477 -486l451 -573h-193l-366 469l-191 -188v-281h-153z" />
    <glyph glyph-name="l" unicode="l" horiz-adv-x="464" 
d="M156 0v1432h153v-1432h-153z" />
    <glyph glyph-name="m" unicode="m" horiz-adv-x="1832" 
d="M156 0v1059h153v-156q40 84 121.5 132t185.5 48q118 0 208.5 -60.5t133.5 -164.5q32 102 126.5 163.5t215.5 61.5q166 0 271.5 -114.5t105.5 -294.5v-674h-153v653q0 129 -68.5 211t-175.5 82q-126 0 -206.5 -76t-80.5 -196v-674h-153v653q0 129 -68.5 211t-175.5 82
q-126 0 -206.5 -76t-80.5 -196v-674h-153z" />
    <glyph glyph-name="n" unicode="n" 
d="M158 0v1059h153v-170q46 86 141.5 140t206.5 54q175 0 286.5 -114.5t111.5 -294.5v-674h-154v653q0 129 -73.5 211t-190.5 82q-133 0 -230.5 -81t-97.5 -191v-674h-153z" />
    <glyph glyph-name="o" unicode="o" horiz-adv-x="1292" 
d="M98 530q0 148 75 275.5t201.5 202.5t272.5 75q109 0 210.5 -44.5t175 -119t117.5 -176.5t44 -213t-44 -213.5t-117.5 -177.5t-175 -119.5t-210.5 -44.5t-210.5 45t-175.5 119.5t-118.5 177t-44.5 213.5zM260 530q0 -170 114.5 -293.5t272.5 -123.5q157 0 271 123.5
t114 293.5q0 83 -31 160t-83 133t-123 89.5t-148 33.5q-158 0 -272.5 -123.5t-114.5 -292.5z" />
    <glyph glyph-name="p" unicode="p" horiz-adv-x="1306" 
d="M170 -352v1411h154v-199q61 106 160 164.5t225 58.5q210 0 348.5 -155.5t138.5 -397.5q0 -243 -138.5 -399t-348.5 -156q-125 0 -224.5 59t-160.5 165v-551h-154zM324 530q0 -183 99.5 -300t256.5 -117q155 0 254.5 117t99.5 300t-99.5 299.5t-254.5 116.5
q-157 0 -256.5 -116.5t-99.5 -299.5z" />
    <glyph glyph-name="q" unicode="q" horiz-adv-x="1306" 
d="M111 530q0 242 138.5 397.5t348.5 155.5q126 0 225 -58.5t160 -164.5v199h154v-1411h-154v551q-61 -106 -160.5 -165t-224.5 -59q-210 0 -348.5 156t-138.5 399zM272 530q0 -183 100 -300t255 -117q157 0 256.5 117t99.5 300t-99.5 299.5t-256.5 116.5
q-155 0 -255 -116.5t-100 -299.5z" />
    <glyph glyph-name="r" unicode="r" horiz-adv-x="790" 
d="M170 0v1059h154v-207q48 107 156 169t253 62v-137q-180 0 -294.5 -99.5t-114.5 -254.5v-592h-154z" />
    <glyph glyph-name="s" unicode="s" horiz-adv-x="1015" 
d="M92 133l80 113q183 -133 358 -133q105 0 169.5 45.5t64.5 120.5q0 24 -8 45t-19 36t-33.5 30t-40 24.5t-51 21t-54 18t-60.5 17.5q-195 56 -275 122.5t-80 178.5q0 142 104.5 226.5t266.5 84.5q199 0 379 -118l-74 -119q-156 100 -305 100q-94 0 -155.5 -40.5
t-61.5 -114.5q0 -65 56 -99t218 -86q47 -15 73.5 -23.5t69 -26t66.5 -32.5t54 -39t46 -50t27 -62t11 -78q0 -144 -110.5 -232t-277.5 -88q-112 0 -228 41.5t-210 116.5z" />
    <glyph glyph-name="t" unicode="t" horiz-adv-x="757" 
d="M76 922v137h166v291h153v-291h260v-137h-260v-676q0 -57 34 -95t81 -38q71 0 111 43l75 -113q-87 -68 -196 -68q-114 0 -186 76t-72 195v676h-166z" />
    <glyph glyph-name="u" unicode="u" 
d="M156 385v674h153v-653q0 -129 73.5 -211t190.5 -82q133 0 230.5 81t97.5 191v674h154v-1059h-154v170q-46 -86 -141.5 -140.5t-206.5 -54.5q-175 0 -286 115t-111 295z" />
    <glyph glyph-name="v" unicode="v" horiz-adv-x="1153" 
d="M55 1059h172l353 -879l346 879h172l-445 -1059h-147z" />
    <glyph glyph-name="w" unicode="w" horiz-adv-x="1705" 
d="M72 1059h164l264 -854l288 854h134l288 -854l265 854h163l-356 -1059h-145l-281 846l-285 -846h-145z" />
    <glyph glyph-name="x" unicode="x" horiz-adv-x="1128" 
d="M66 0l409 541l-393 518h180l303 -400l301 400h181l-392 -518l408 -541h-180l-318 422l-319 -422h-180z" />
    <glyph glyph-name="y" unicode="y" horiz-adv-x="1214" 
d="M61 1059h170l371 -881l350 881h166l-483 -1178q-54 -132 -132 -190t-190 -60q-93 0 -168 35l37 131q53 -26 125 -26q53 0 88.5 21t65.5 73l61 131z" />
    <glyph glyph-name="z" unicode="z" horiz-adv-x="1052" 
d="M111 0v121l624 792h-612v146h819v-121l-627 -793h631v-145h-835z" />
    <glyph glyph-name="braceleft" unicode="{" horiz-adv-x="806" 
d="M88 487v113q109 0 155 46t46 149v286q0 110 37 178t127 109.5t247 58.5l13 -108q-94 -14 -148.5 -30.5t-88 -46t-44 -67.5t-10.5 -102l2 -295q0 -94 -38.5 -150t-115.5 -83q78 -28 116 -84.5t38 -151.5l-2 -293q0 -86 23.5 -131t83.5 -71t184 -45l-13 -109
q-158 17 -248 59t-126.5 110t-36.5 177v289q0 103 -46.5 147.5t-154.5 44.5z" />
    <glyph glyph-name="bar" unicode="|" horiz-adv-x="569" 
d="M223 -152v1674h123v-1674h-123z" />
    <glyph glyph-name="braceright" unicode="}" horiz-adv-x="806" 
d="M94 -231q124 19 184 45t83.5 71t23.5 131l-2 293q0 95 38 151.5t116 84.5q-77 27 -115.5 83t-38.5 150l2 295q0 64 -10.5 102t-44 67.5t-88 46t-148.5 30.5l12 108q232 -26 322 -104.5t90 -241.5v-286q0 -103 46 -149t155 -46v-113q-108 0 -154.5 -44.5t-46.5 -147.5
v-289q0 -109 -37 -177t-127 -110t-248 -59z" />
    <glyph glyph-name="asciitilde" unicode="~" horiz-adv-x="911" 
d="M127 625q31 243 197 243q41 0 80.5 -21t65.5 -46.5t58 -46.5t60 -21q40 0 65 33t37 106l94 -14q-31 -244 -196 -244q-41 0 -80.5 21t-65.5 47t-58 47t-60 21q-80 0 -103 -140z" />
    <glyph glyph-name="uni00A0" unicode="&#xa0;" horiz-adv-x="593" 
 />
    <glyph glyph-name="exclamdown" unicode="&#xa1;" horiz-adv-x="559" 
d="M168 971q0 46 32 79t76 33q47 0 80 -33t33 -79q0 -43 -33 -76t-80 -33q-44 0 -76 33t-32 76zM180 -348l41 1012h109l39 -1012h-189z" />
    <glyph glyph-name="cent" unicode="&#xa2;" horiz-adv-x="1110" 
d="M98 530q0 196 127.5 350t315.5 193v133h159v-125q186 -21 324 -153l-106 -105q-91 101 -218 119v-825q131 21 224 125l106 -105q-139 -139 -330 -160v-129h-159v138q-188 40 -315.5 194t-127.5 350zM260 530q0 -139 79.5 -250.5t201.5 -150.5v801q-121 -39 -201 -150.5
t-80 -249.5z" />
    <glyph glyph-name="sterling" unicode="&#xa3;" horiz-adv-x="1267" 
d="M113 0v78l133 74v383h-127v137h127v276q0 212 124.5 348t319.5 136q141 0 261.5 -65.5t170.5 -168.5l-116 -115q-26 89 -114.5 146t-201.5 57q-125 0 -204.5 -94.5t-79.5 -243.5v-276h413v-137h-413v-383h768v-152h-1061z" />
    <glyph glyph-name="yen" unicode="&#xa5;" horiz-adv-x="1374" 
d="M37 1407h199l452 -682l457 682h192l-497 -733h356v-137h-424v-164h424v-137h-424v-236h-168v236h-424v137h424v164h-424v137h357z" />
    <glyph glyph-name="dieresis" unicode="&#xa8;" horiz-adv-x="839" 
d="M129 1317q0 37 27.5 65.5t66.5 28.5q38 0 66 -28.5t28 -65.5q0 -38 -28 -66t-66 -28q-39 0 -66.5 27.5t-27.5 66.5zM522 1317q0 37 27.5 65.5t66.5 28.5q38 0 66.5 -28.5t28.5 -65.5q0 -38 -28.5 -66t-66.5 -28q-39 0 -66.5 27.5t-27.5 66.5z" />
    <glyph glyph-name="uni00AD" unicode="&#xad;" horiz-adv-x="759" 
d="M115 481v150h530v-150h-530z" />
    <glyph glyph-name="macron" unicode="&#xaf;" horiz-adv-x="892" 
d="M129 1217v112h635v-112h-635z" />
    <glyph glyph-name="acute" unicode="&#xb4;" horiz-adv-x="667" 
d="M129 1180l248 295l162 -37l-291 -258h-119z" />
    <glyph glyph-name="cedilla" unicode="&#xb8;" horiz-adv-x="638" 
d="M129 -336l39 86q58 -47 133 -47q44 0 73 22t29 56q0 31 -20 50t-59 19q-42 0 -70 -22l-33 35l68 160h106l-49 -117q8 2 23 2q62 0 101.5 -37.5t39.5 -97.5q0 -74 -57.5 -120t-143.5 -46q-109 0 -180 57z" />
    <glyph glyph-name="questiondown" unicode="&#xbf;" horiz-adv-x="1038" 
d="M90 2q0 137 115 249t295 150v263h162v-383q-179 -15 -294.5 -90t-115.5 -175q0 -99 76 -171t200 -72q108 0 192 51t159 143l104 -104q-191 -236 -463 -236q-191 0 -310.5 107.5t-119.5 267.5zM471 971q0 46 32.5 79t76.5 33q47 0 79.5 -33t32.5 -79q0 -43 -33 -76
t-79 -33q-44 0 -76.5 33t-32.5 76z" />
    <glyph glyph-name="Agrave" unicode="&#xc0;" horiz-adv-x="1546" 
d="M66 0l620 1407h174l621 -1407h-174l-142 319h-784l-141 -319h-174zM426 1786l162 37l248 -295h-119zM446 471h654l-326 739z" />
    <glyph glyph-name="Aacute" unicode="&#xc1;" horiz-adv-x="1546" 
d="M66 0l620 1407h174l621 -1407h-174l-142 319h-784l-141 -319h-174zM446 471h654l-326 739zM711 1528l247 295l162 -37l-291 -258h-118z" />
    <glyph glyph-name="Acircumflex" unicode="&#xc2;" horiz-adv-x="1546" 
d="M66 0l620 1407h174l621 -1407h-174l-142 319h-784l-141 -319h-174zM446 471h654l-326 739zM496 1528l204 280h144l209 -280h-119l-162 176l-160 -176h-116z" />
    <glyph glyph-name="Atilde" unicode="&#xc3;" horiz-adv-x="1546" 
d="M66 0l620 1407h174l621 -1407h-174l-142 319h-784l-141 -319h-174zM442 1536q31 244 197 244q41 0 80.5 -21t65.5 -46.5t58 -46.5t60 -21q80 0 103 139l94 -15q-31 -243 -197 -243q-41 0 -80.5 21t-65.5 46.5t-58 46.5t-60 21q-40 0 -65 -33t-37 -106zM446 471h654
l-326 739z" />
    <glyph glyph-name="Adieresis" unicode="&#xc4;" horiz-adv-x="1546" 
d="M66 0l620 1407h174l621 -1407h-174l-142 319h-784l-141 -319h-174zM446 471h654l-326 739zM481 1665q0 37 27.5 65.5t66.5 28.5q38 0 66.5 -28.5t28.5 -65.5q0 -38 -28.5 -66t-66.5 -28q-39 0 -66.5 27.5t-27.5 66.5zM874 1665q0 37 28 65.5t67 28.5q38 0 66 -28.5
t28 -65.5q0 -38 -28 -66t-66 -28q-39 0 -67 27.5t-28 66.5z" />
    <glyph glyph-name="Aring" unicode="&#xc5;" horiz-adv-x="1546" 
d="M66 0l620 1407h174l621 -1407h-174l-142 319h-784l-141 -319h-174zM446 471h654l-326 739zM561 1765q0 88 61.5 149.5t149.5 61.5t149.5 -61.5t61.5 -149.5t-61.5 -149.5t-149.5 -61.5t-149.5 61.5t-61.5 149.5zM651 1765q0 -49 35.5 -84.5t85.5 -35.5t85.5 35.5
t35.5 84.5t-35.5 85t-85.5 36t-85.5 -36t-35.5 -85z" />
    <glyph glyph-name="AE" unicode="&#xc6;" horiz-adv-x="2097" 
d="M66 0l811 1407h1108v-152h-848v-462h764v-152h-764v-489h848v-152h-1010v319h-541l-184 -319h-184zM522 471h453v784z" />
    <glyph glyph-name="Ccedilla" unicode="&#xc7;" horiz-adv-x="1392" 
d="M106 705q0 145 58.5 279.5t156 232.5t230.5 156.5t276 58.5q144 0 275 -56.5t231 -158.5l-108 -111q-78 84 -181.5 131t-216.5 47q-149 0 -278 -79t-205 -212.5t-76 -287.5q0 -116 45 -223.5t120.5 -186t179 -125.5t214.5 -47q113 0 216.5 47t181.5 131l108 -111
q-94 -94 -215.5 -151t-255.5 -64l-28 -69q8 2 22 2q62 0 101.5 -37.5t39.5 -97.5q0 -74 -57 -120t-143 -46q-110 0 -181 57l39 86q58 -47 133 -47q44 0 73.5 22t29.5 56q0 31 -20 50t-60 19q-42 0 -70 -22l-32 35l49 117q-177 18 -326.5 120t-237.5 262.5t-88 342.5z" />
    <glyph glyph-name="Egrave" unicode="&#xc8;" horiz-adv-x="1284" 
d="M162 0v1407h1009v-152h-847v-462h763v-152h-763v-489h847v-152h-1009zM401 1786l162 37l248 -295h-119z" />
    <glyph glyph-name="Eacute" unicode="&#xc9;" horiz-adv-x="1284" 
d="M162 0v1407h1009v-152h-847v-462h763v-152h-763v-489h847v-152h-1009zM504 1528l248 295l161 -37l-290 -258h-119z" />
    <glyph glyph-name="Ecircumflex" unicode="&#xca;" horiz-adv-x="1284" 
d="M162 0v1407h1009v-152h-847v-462h763v-152h-763v-489h847v-152h-1009zM391 1528l205 280h143l209 -280h-119l-161 176l-160 -176h-117z" />
    <glyph glyph-name="Edieresis" unicode="&#xcb;" horiz-adv-x="1284" 
d="M162 0v1407h1009v-152h-847v-462h763v-152h-763v-489h847v-152h-1009zM377 1665q0 37 27.5 65.5t66.5 28.5q38 0 66 -28.5t28 -65.5q0 -38 -28 -66t-66 -28q-39 0 -66.5 27.5t-27.5 66.5zM770 1665q0 37 27.5 65.5t66.5 28.5q38 0 66 -28.5t28 -65.5q0 -38 -28 -66
t-66 -28q-39 0 -66.5 27.5t-27.5 66.5z" />
    <glyph glyph-name="Igrave" unicode="&#xcc;" horiz-adv-x="483" 
d="M-106 1786l161 37l248 -295h-119zM162 0v1407h160v-1407h-160z" />
    <glyph glyph-name="Iacute" unicode="&#xcd;" horiz-adv-x="483" 
d="M162 0v1407h160v-1407h-160zM180 1528l248 295l162 -37l-291 -258h-119z" />
    <glyph glyph-name="Icircumflex" unicode="&#xce;" horiz-adv-x="483" 
d="M-35 1528l205 280h143l209 -280h-119l-161 176l-160 -176h-117zM162 0v1407h160v-1407h-160z" />
    <glyph glyph-name="Idieresis" unicode="&#xcf;" horiz-adv-x="483" 
d="M-49 1665q0 37 27.5 65.5t66.5 28.5q38 0 66 -28.5t28 -65.5q0 -38 -28 -66t-66 -28q-39 0 -66.5 27.5t-27.5 66.5zM162 0v1407h160v-1407h-160zM344 1665q0 37 27.5 65.5t66.5 28.5q38 0 66 -28.5t28 -65.5q0 -38 -28 -66t-66 -28q-39 0 -66.5 27.5t-27.5 66.5z" />
    <glyph glyph-name="Eth" unicode="&#xd0;" horiz-adv-x="1595" 
d="M86 641v152h141v614h475q220 0 394 -89t271 -249.5t97 -363.5q0 -204 -97 -364.5t-271 -250.5t-394 -90h-475v641h-141zM387 145h315q264 0 432.5 157t168.5 403q0 161 -76.5 288t-213.5 198t-311 71h-315v-469h414l-2 -152h-412v-496z" />
    <glyph glyph-name="Ntilde" unicode="&#xd1;" horiz-adv-x="1576" 
d="M193 0v1407h159l873 -1145v1145h159v-1407h-159l-873 1145v-1145h-159zM459 1536q31 244 196 244q41 0 80.5 -21t66 -46.5t58.5 -46.5t60 -21q40 0 65 33t37 106l94 -15q-31 -243 -196 -243q-41 0 -80.5 21t-66 46.5t-58.5 46.5t-60 21q-40 0 -65 -33t-37 -106z" />
    <glyph glyph-name="Ograve" unicode="&#xd2;" horiz-adv-x="1652" 
d="M106 705q0 145 58.5 279.5t156 232.5t230.5 156.5t276 58.5q144 0 277 -58.5t229.5 -156.5t154.5 -232.5t58 -279.5q0 -194 -97.5 -362.5t-263.5 -268t-358 -99.5q-191 0 -357.5 99.5t-265 268t-98.5 362.5zM268 705q0 -116 45 -223.5t120.5 -186t179 -125.5t214.5 -47
t214.5 47t178 125.5t119.5 186t45 223.5q0 154 -75.5 287.5t-204 212.5t-277.5 79t-278 -79t-205 -212.5t-76 -287.5zM483 1786l162 37l248 -295h-119z" />
    <glyph glyph-name="Oacute" unicode="&#xd3;" horiz-adv-x="1652" 
d="M106 705q0 145 58.5 279.5t156 232.5t230.5 156.5t276 58.5q144 0 277 -58.5t229.5 -156.5t154.5 -232.5t58 -279.5q0 -194 -97.5 -362.5t-263.5 -268t-358 -99.5q-191 0 -357.5 99.5t-265 268t-98.5 362.5zM268 705q0 -116 45 -223.5t120.5 -186t179 -125.5t214.5 -47
t214.5 47t178 125.5t119.5 186t45 223.5q0 154 -75.5 287.5t-204 212.5t-277.5 79t-278 -79t-205 -212.5t-76 -287.5zM766 1528l248 295l162 -37l-291 -258h-119z" />
    <glyph glyph-name="Ocircumflex" unicode="&#xd4;" horiz-adv-x="1652" 
d="M106 705q0 145 58.5 279.5t156 232.5t230.5 156.5t276 58.5q144 0 277 -58.5t229.5 -156.5t154.5 -232.5t58 -279.5q0 -194 -97.5 -362.5t-263.5 -268t-358 -99.5q-191 0 -357.5 99.5t-265 268t-98.5 362.5zM268 705q0 -116 45 -223.5t120.5 -186t179 -125.5t214.5 -47
t214.5 47t178 125.5t119.5 186t45 223.5q0 154 -75.5 287.5t-204 212.5t-277.5 79t-278 -79t-205 -212.5t-76 -287.5zM551 1528l205 280h143l209 -280h-119l-162 176l-159 -176h-117z" />
    <glyph glyph-name="Otilde" unicode="&#xd5;" horiz-adv-x="1652" 
d="M106 705q0 145 58.5 279.5t156 232.5t230.5 156.5t276 58.5q144 0 277 -58.5t229.5 -156.5t154.5 -232.5t58 -279.5q0 -194 -97.5 -362.5t-263.5 -268t-358 -99.5q-191 0 -357.5 99.5t-265 268t-98.5 362.5zM268 705q0 -116 45 -223.5t120.5 -186t179 -125.5t214.5 -47
t214.5 47t178 125.5t119.5 186t45 223.5q0 154 -75.5 287.5t-204 212.5t-277.5 79t-278 -79t-205 -212.5t-76 -287.5zM498 1536q31 244 196 244q41 0 80.5 -21t65.5 -46.5t58 -46.5t60 -21q80 0 103 139l94 -15q-31 -243 -197 -243q-41 0 -80.5 21t-65.5 46.5t-58 46.5
t-60 21q-40 0 -65 -33t-37 -106z" />
    <glyph glyph-name="Odieresis" unicode="&#xd6;" horiz-adv-x="1652" 
d="M106 705q0 145 58.5 279.5t156 232.5t230.5 156.5t276 58.5q144 0 277 -58.5t229.5 -156.5t154.5 -232.5t58 -279.5q0 -194 -97.5 -362.5t-263.5 -268t-358 -99.5q-191 0 -357.5 99.5t-265 268t-98.5 362.5zM268 705q0 -116 45 -223.5t120.5 -186t179 -125.5t214.5 -47
t214.5 47t178 125.5t119.5 186t45 223.5q0 154 -75.5 287.5t-204 212.5t-277.5 79t-278 -79t-205 -212.5t-76 -287.5zM537 1665q0 37 27.5 65.5t66.5 28.5q38 0 66 -28.5t28 -65.5q0 -38 -28 -66t-66 -28q-39 0 -66.5 27.5t-27.5 66.5zM930 1665q0 37 27.5 65.5t66.5 28.5
q38 0 66 -28.5t28 -65.5q0 -38 -28 -66t-66 -28q-39 0 -66.5 27.5t-27.5 66.5z" />
    <glyph glyph-name="multiply" unicode="&#xd7;" horiz-adv-x="1107" 
d="M168 406l278 278l-278 279l108 108l279 -278l279 278l106 -108l-276 -277l276 -278l-109 -109l-276 279l-279 -279z" />
    <glyph glyph-name="Oslash" unicode="&#xd8;" horiz-adv-x="1652" 
d="M106 705q0 145 58.5 279.5t156 232.5t230.5 156.5t276 58.5q234 0 424 -144l105 119h174l-180 -207q93 -100 144.5 -227.5t51.5 -267.5q0 -194 -97.5 -362.5t-263.5 -268t-358 -99.5q-230 0 -424 144l-104 -119h-174l180 207q-94 100 -146.5 229t-52.5 269zM268 705
q0 -105 37 -204t103 -177l743 850q-145 110 -324 110q-149 0 -278 -79t-205 -212.5t-76 -287.5zM504 233q145 -110 323 -110q111 0 214.5 47t178 125.5t119.5 186t45 223.5q0 213 -139 378z" />
    <glyph glyph-name="Ugrave" unicode="&#xd9;" horiz-adv-x="1527" 
d="M176 584v823h160v-823q0 -203 120.5 -333t307.5 -130t307.5 130t120.5 333v823h160v-823q0 -267 -165 -438t-423 -171t-423 171t-165 438zM498 1786l161 37l248 -295h-119z" />
    <glyph glyph-name="Uacute" unicode="&#xda;" horiz-adv-x="1527" 
d="M176 584v823h160v-823q0 -203 120.5 -333t307.5 -130t307.5 130t120.5 333v823h160v-823q0 -267 -165 -438t-423 -171t-423 171t-165 438zM600 1528l248 295l162 -37l-291 -258h-119z" />
    <glyph glyph-name="Ucircumflex" unicode="&#xdb;" horiz-adv-x="1527" 
d="M176 584v823h160v-823q0 -203 120.5 -333t307.5 -130t307.5 130t120.5 333v823h160v-823q0 -267 -165 -438t-423 -171t-423 171t-165 438zM487 1528l205 280h144l208 -280h-118l-162 176l-160 -176h-117z" />
    <glyph glyph-name="Udieresis" unicode="&#xdc;" horiz-adv-x="1527" 
d="M176 584v823h160v-823q0 -203 120.5 -333t307.5 -130t307.5 130t120.5 333v823h160v-823q0 -267 -165 -438t-423 -171t-423 171t-165 438zM473 1665q0 37 27.5 65.5t66.5 28.5q38 0 66.5 -28.5t28.5 -65.5q0 -38 -28.5 -66t-66.5 -28q-39 0 -66.5 27.5t-27.5 66.5z
M866 1665q0 37 28 65.5t67 28.5q38 0 66 -28.5t28 -65.5q0 -38 -28 -66t-66 -28q-39 0 -67 27.5t-28 66.5z" />
    <glyph glyph-name="Yacute" unicode="&#xdd;" horiz-adv-x="1374" 
d="M37 1407h199l452 -682l457 682h192l-565 -834v-573h-168v573zM524 1528l248 295l162 -37l-291 -258h-119z" />
    <glyph glyph-name="Thorn" unicode="&#xde;" horiz-adv-x="1318" 
d="M162 0v1407h164v-248h407q144 0 262.5 -57t187 -160.5t68.5 -232.5q0 -196 -149 -323.5t-369 -127.5h-411v-258h-160zM322 410h383q174 0 279.5 80t105.5 219t-105.5 219t-279.5 80h-383v-598z" />
    <glyph glyph-name="germandbls" unicode="&#xdf;" horiz-adv-x="1179" 
d="M172 0v1077q0 163 120 267t308 104q187 0 306.5 -104t119.5 -267q0 -212 -201 -329q123 -62 189.5 -155.5t66.5 -207.5q0 -169 -117 -277t-300 -108h-179v145h138q130 0 213.5 73.5t83.5 187.5t-83.5 187t-213.5 73h-138v145h113q115 0 190.5 72.5t75.5 173.5
q0 107 -74.5 176.5t-191.5 69.5t-191.5 -71t-74.5 -181v-1051h-160z" />
    <glyph glyph-name="agrave" unicode="&#xe0;" horiz-adv-x="1173" 
d="M102 313q0 155 121 254t295 99q157 0 344 -60v39q0 46 -7.5 87t-27.5 82.5t-51.5 71t-83 48t-117.5 18.5q-121 0 -309 -96l-61 125q204 102 381 102q210 0 320 -119.5t110 -318.5v-645h-154v166q-55 -90 -159 -140.5t-214 -50.5q-170 0 -278.5 92t-108.5 246zM252 319
q0 -96 74.5 -152t189.5 -56t216 58t130 163v162q-153 43 -319 43q-121 0 -206 -62t-85 -156zM334 1438l162 37l247 -295h-118z" />
    <glyph glyph-name="aacute" unicode="&#xe1;" horiz-adv-x="1173" 
d="M102 313q0 155 121 254t295 99q157 0 344 -60v39q0 46 -7.5 87t-27.5 82.5t-51.5 71t-83 48t-117.5 18.5q-121 0 -309 -96l-61 125q204 102 381 102q210 0 320 -119.5t110 -318.5v-645h-154v166q-55 -90 -159 -140.5t-214 -50.5q-170 0 -278.5 92t-108.5 246zM252 319
q0 -96 74.5 -152t189.5 -56t216 58t130 163v162q-153 43 -319 43q-121 0 -206 -62t-85 -156zM436 1180l248 295l162 -37l-291 -258h-119z" />
    <glyph glyph-name="acircumflex" unicode="&#xe2;" horiz-adv-x="1173" 
d="M102 313q0 155 121 254t295 99q157 0 344 -60v39q0 46 -7.5 87t-27.5 82.5t-51.5 71t-83 48t-117.5 18.5q-121 0 -309 -96l-61 125q204 102 381 102q210 0 320 -119.5t110 -318.5v-645h-154v166q-55 -90 -159 -140.5t-214 -50.5q-170 0 -278.5 92t-108.5 246zM252 319
q0 -96 74.5 -152t189.5 -56t216 58t130 163v162q-153 43 -319 43q-121 0 -206 -62t-85 -156zM324 1180l204 280h144l209 -280h-119l-162 176l-160 -176h-116z" />
    <glyph glyph-name="atilde" unicode="&#xe3;" horiz-adv-x="1173" 
d="M102 313q0 155 121 254t295 99q157 0 344 -60v39q0 46 -7.5 87t-27.5 82.5t-51.5 71t-83 48t-117.5 18.5q-121 0 -309 -96l-61 125q204 102 381 102q210 0 320 -119.5t110 -318.5v-645h-154v166q-55 -90 -159 -140.5t-214 -50.5q-170 0 -278.5 92t-108.5 246zM252 319
q0 -96 74.5 -152t189.5 -56t216 58t130 163v162q-153 43 -319 43q-121 0 -206 -62t-85 -156zM270 1188q31 244 197 244q41 0 80.5 -21t65.5 -47t58 -47t60 -21q80 0 103 140l94 -15q-31 -243 -197 -243q-41 0 -80.5 21t-65.5 46.5t-58 46.5t-60 21q-40 0 -65 -33t-37 -106z
" />
    <glyph glyph-name="adieresis" unicode="&#xe4;" horiz-adv-x="1173" 
d="M102 313q0 155 121 254t295 99q157 0 344 -60v39q0 46 -7.5 87t-27.5 82.5t-51.5 71t-83 48t-117.5 18.5q-121 0 -309 -96l-61 125q204 102 381 102q210 0 320 -119.5t110 -318.5v-645h-154v166q-55 -90 -159 -140.5t-214 -50.5q-170 0 -278.5 92t-108.5 246zM252 319
q0 -96 74.5 -152t189.5 -56t216 58t130 163v162q-153 43 -319 43q-121 0 -206 -62t-85 -156zM309 1317q0 37 27.5 65.5t66.5 28.5q38 0 66.5 -28.5t28.5 -65.5q0 -38 -28.5 -66t-66.5 -28q-39 0 -66.5 27.5t-27.5 66.5zM702 1317q0 37 28 65.5t67 28.5q38 0 66 -28.5
t28 -65.5q0 -38 -28 -66t-66 -28q-39 0 -67 27.5t-28 66.5z" />
    <glyph glyph-name="aring" unicode="&#xe5;" horiz-adv-x="1173" 
d="M102 313q0 155 121 254t295 99q157 0 344 -60v39q0 46 -7.5 87t-27.5 82.5t-51.5 71t-83 48t-117.5 18.5q-121 0 -309 -96l-61 125q204 102 381 102q210 0 320 -119.5t110 -318.5v-645h-154v166q-55 -90 -159 -140.5t-214 -50.5q-170 0 -278.5 92t-108.5 246zM252 319
q0 -96 74.5 -152t189.5 -56t216 58t130 163v162q-153 43 -319 43q-121 0 -206 -62t-85 -156zM389 1417q0 88 61.5 149.5t149.5 61.5t149.5 -61.5t61.5 -149.5t-61.5 -149.5t-149.5 -61.5t-149.5 61.5t-61.5 149.5zM479 1417q0 -49 35.5 -85t85.5 -36t85.5 36t35.5 85
t-35.5 85t-85.5 36t-85.5 -36t-35.5 -85z" />
    <glyph glyph-name="ae" unicode="&#xe6;" horiz-adv-x="1982" 
d="M102 313q0 155 121 254t295 99q157 0 344 -60v39q0 46 -7.5 87t-27.5 82.5t-51.5 71t-83 48t-117.5 18.5q-121 0 -309 -96l-61 125q204 102 381 102q143 0 239.5 -56t143.5 -157q73 100 182 156.5t233 56.5q237 0 369.5 -165t132.5 -447h-866q18 -158 120.5 -258
t256.5 -100q93 0 188.5 36.5t145.5 90.5l94 -101q-67 -73 -189.5 -118.5t-236.5 -45.5q-134 0 -253 65t-192 179q-67 -110 -186.5 -177t-257.5 -67q-192 0 -300 89t-108 249zM252 319q0 -98 75.5 -153t209.5 -55q132 0 228.5 90.5t96.5 214.5v78q-153 43 -319 43
q-121 0 -206 -62t-85 -156zM1022 608h713q-16 150 -104 244t-240 94q-142 0 -244.5 -93t-124.5 -245z" />
    <glyph glyph-name="ccedilla" unicode="&#xe7;" horiz-adv-x="1110" 
d="M98 530q0 148 75 275.5t201.5 202.5t272.5 75q106 0 203.5 -41t173.5 -114l-106 -105q-53 58 -123.5 90.5t-147.5 32.5q-158 0 -272.5 -123.5t-114.5 -292.5q0 -170 114.5 -293.5t272.5 -123.5q78 0 150 34t127 95l106 -105q-148 -148 -346 -160l-31 -71q8 2 23 2
q62 0 101.5 -37.5t39.5 -97.5q0 -74 -57.5 -120t-143.5 -46q-109 0 -180 57l39 86q58 -47 133 -47q44 0 73.5 22t29.5 56q0 31 -20 50t-60 19q-42 0 -70 -22l-33 35l50 117q-98 14 -187 63t-153 122t-102 168t-38 197z" />
    <glyph glyph-name="egrave" unicode="&#xe8;" horiz-adv-x="1218" 
d="M98 532q0 154 71 281t191 198.5t261 71.5q237 0 369 -165t132 -447h-866q18 -158 120.5 -258t256.5 -100q93 0 188.5 36.5t145.5 90.5l94 -101q-67 -73 -189.5 -118.5t-236.5 -45.5q-105 0 -203 41.5t-172 114t-118 177.5t-44 224zM258 608h713q-16 150 -104 244t-240 94
q-142 0 -244.5 -93t-124.5 -245zM354 1438l162 37l248 -295h-119z" />
    <glyph glyph-name="eacute" unicode="&#xe9;" horiz-adv-x="1218" 
d="M98 532q0 154 71 281t191 198.5t261 71.5q237 0 369 -165t132 -447h-866q18 -158 120.5 -258t256.5 -100q93 0 188.5 36.5t145.5 90.5l94 -101q-67 -73 -189.5 -118.5t-236.5 -45.5q-105 0 -203 41.5t-172 114t-118 177.5t-44 224zM258 608h713q-16 150 -104 244t-240 94
q-142 0 -244.5 -93t-124.5 -245zM457 1180l248 295l161 -37l-291 -258h-118z" />
    <glyph glyph-name="ecircumflex" unicode="&#xea;" horiz-adv-x="1218" 
d="M98 532q0 154 71 281t191 198.5t261 71.5q237 0 369 -165t132 -447h-866q18 -158 120.5 -258t256.5 -100q93 0 188.5 36.5t145.5 90.5l94 -101q-67 -73 -189.5 -118.5t-236.5 -45.5q-105 0 -203 41.5t-172 114t-118 177.5t-44 224zM258 608h713q-16 150 -104 244t-240 94
q-142 0 -244.5 -93t-124.5 -245zM344 1180l205 280h143l209 -280h-119l-161 176l-160 -176h-117z" />
    <glyph glyph-name="edieresis" unicode="&#xeb;" horiz-adv-x="1218" 
d="M98 532q0 154 71 281t191 198.5t261 71.5q237 0 369 -165t132 -447h-866q18 -158 120.5 -258t256.5 -100q93 0 188.5 36.5t145.5 90.5l94 -101q-67 -73 -189.5 -118.5t-236.5 -45.5q-105 0 -203 41.5t-172 114t-118 177.5t-44 224zM258 608h713q-16 150 -104 244t-240 94
q-142 0 -244.5 -93t-124.5 -245zM330 1317q0 37 27.5 65.5t66.5 28.5q38 0 66 -28.5t28 -65.5q0 -38 -28 -66t-66 -28q-39 0 -66.5 27.5t-27.5 66.5zM723 1317q0 37 27.5 65.5t66.5 28.5q38 0 66 -28.5t28 -65.5q0 -38 -28 -66t-66 -28q-39 0 -66.5 27.5t-27.5 66.5z" />
    <glyph glyph-name="igrave" unicode="&#xec;" horiz-adv-x="460" 
d="M-117 1438l162 37l248 -295h-119zM154 0v1059h153v-1059h-153z" />
    <glyph glyph-name="iacute" unicode="&#xed;" horiz-adv-x="460" 
d="M154 0v1059h153v-1059h-153zM170 1180l248 295l162 -37l-291 -258h-119z" />
    <glyph glyph-name="icircumflex" unicode="&#xee;" horiz-adv-x="460" 
d="M-45 1180l205 280h143l209 -280h-119l-162 176l-159 -176h-117zM154 0v1059h153v-1059h-153z" />
    <glyph glyph-name="idieresis" unicode="&#xef;" horiz-adv-x="460" 
d="M-59 1317q0 37 27.5 65.5t66.5 28.5q38 0 66 -28.5t28 -65.5q0 -38 -28 -66t-66 -28q-39 0 -66.5 27.5t-27.5 66.5zM154 0v1059h153v-1059h-153zM334 1317q0 37 27.5 65.5t66.5 28.5q38 0 66 -28.5t28 -65.5q0 -38 -28 -66t-66 -28q-39 0 -66.5 27.5t-27.5 66.5z" />
    <glyph glyph-name="eth" unicode="&#xf0;" horiz-adv-x="1284" 
d="M123 508q0 224 134 368t343 144q202 0 342 -166q-85 165 -276 332l-250 -111l-56 127l187 82q-101 75 -166 119l156 63q100 -78 149 -118l203 90l55 -127l-145 -66q185 -171 273.5 -335.5t88.5 -358.5q0 -254 -144.5 -415t-371.5 -161q-229 0 -375.5 150t-146.5 383z
M283 506q0 -172 101 -281.5t261 -109.5q155 0 254.5 108.5t99.5 278.5q0 163 -99 273t-261 110q-157 0 -256.5 -106.5t-99.5 -272.5z" />
    <glyph glyph-name="ntilde" unicode="&#xf1;" 
d="M158 0v1059h153v-170q46 86 141.5 140t206.5 54q175 0 286.5 -114.5t111.5 -294.5v-674h-154v653q0 129 -73.5 211t-190.5 82q-133 0 -230.5 -81t-97.5 -191v-674h-153zM311 1188q31 244 197 244q41 0 80.5 -21t65.5 -47t58 -47t60 -21q79 0 102 140l95 -15
q-31 -243 -197 -243q-41 0 -80.5 21t-65.5 46.5t-58 46.5t-60 21q-40 0 -65 -33t-37 -106z" />
    <glyph glyph-name="ograve" unicode="&#xf2;" horiz-adv-x="1292" 
d="M98 530q0 148 75 275.5t201.5 202.5t272.5 75q109 0 210.5 -44.5t175 -119t117.5 -176.5t44 -213t-44 -213.5t-117.5 -177.5t-175 -119.5t-210.5 -44.5t-210.5 45t-175.5 119.5t-118.5 177t-44.5 213.5zM260 530q0 -170 114.5 -293.5t272.5 -123.5q157 0 271 123.5
t114 293.5q0 83 -31 160t-83 133t-123 89.5t-148 33.5q-158 0 -272.5 -123.5t-114.5 -292.5zM381 1438l162 37l248 -295h-119z" />
    <glyph glyph-name="oacute" unicode="&#xf3;" horiz-adv-x="1292" 
d="M98 530q0 148 75 275.5t201.5 202.5t272.5 75q109 0 210.5 -44.5t175 -119t117.5 -176.5t44 -213t-44 -213.5t-117.5 -177.5t-175 -119.5t-210.5 -44.5t-210.5 45t-175.5 119.5t-118.5 177t-44.5 213.5zM260 530q0 -170 114.5 -293.5t272.5 -123.5q157 0 271 123.5
t114 293.5q0 83 -31 160t-83 133t-123 89.5t-148 33.5q-158 0 -272.5 -123.5t-114.5 -292.5zM483 1180l248 295l162 -37l-291 -258h-119z" />
    <glyph glyph-name="ocircumflex" unicode="&#xf4;" horiz-adv-x="1292" 
d="M98 530q0 148 75 275.5t201.5 202.5t272.5 75q109 0 210.5 -44.5t175 -119t117.5 -176.5t44 -213t-44 -213.5t-117.5 -177.5t-175 -119.5t-210.5 -44.5t-210.5 45t-175.5 119.5t-118.5 177t-44.5 213.5zM260 530q0 -170 114.5 -293.5t272.5 -123.5q157 0 271 123.5
t114 293.5q0 83 -31 160t-83 133t-123 89.5t-148 33.5q-158 0 -272.5 -123.5t-114.5 -292.5zM371 1180l204 280h144l209 -280h-119l-162 176l-160 -176h-116z" />
    <glyph glyph-name="otilde" unicode="&#xf5;" horiz-adv-x="1292" 
d="M98 530q0 148 75 275.5t201.5 202.5t272.5 75q109 0 210.5 -44.5t175 -119t117.5 -176.5t44 -213t-44 -213.5t-117.5 -177.5t-175 -119.5t-210.5 -44.5t-210.5 45t-175.5 119.5t-118.5 177t-44.5 213.5zM260 530q0 -170 114.5 -293.5t272.5 -123.5q157 0 271 123.5
t114 293.5q0 83 -31 160t-83 133t-123 89.5t-148 33.5q-158 0 -272.5 -123.5t-114.5 -292.5zM317 1188q31 244 197 244q41 0 80.5 -21t65.5 -47t58 -47t60 -21q80 0 103 140l94 -15q-31 -243 -197 -243q-41 0 -80.5 21t-65.5 46.5t-58 46.5t-60 21q-40 0 -65 -33t-37 -106z
" />
    <glyph glyph-name="odieresis" unicode="&#xf6;" horiz-adv-x="1292" 
d="M98 530q0 148 75 275.5t201.5 202.5t272.5 75q109 0 210.5 -44.5t175 -119t117.5 -176.5t44 -213t-44 -213.5t-117.5 -177.5t-175 -119.5t-210.5 -44.5t-210.5 45t-175.5 119.5t-118.5 177t-44.5 213.5zM260 530q0 -170 114.5 -293.5t272.5 -123.5q157 0 271 123.5
t114 293.5q0 83 -31 160t-83 133t-123 89.5t-148 33.5q-158 0 -272.5 -123.5t-114.5 -292.5zM356 1317q0 37 28 65.5t67 28.5q38 0 66 -28.5t28 -65.5q0 -38 -28 -66t-66 -28q-39 0 -67 27.5t-28 66.5zM750 1317q0 37 27.5 65.5t66.5 28.5q38 0 66 -28.5t28 -65.5
q0 -38 -28 -66t-66 -28q-39 0 -66.5 27.5t-27.5 66.5z" />
    <glyph glyph-name="divide" unicode="&#xf7;" horiz-adv-x="1214" 
d="M137 608v152h940v-152h-940zM498 354q0 44 33 76.5t79 32.5q44 0 76.5 -33t32.5 -76q0 -46 -32.5 -79t-76.5 -33q-47 0 -79.5 33t-32.5 79zM498 1018q0 43 32.5 75.5t79.5 32.5q44 0 76.5 -32.5t32.5 -75.5q0 -46 -32.5 -79.5t-76.5 -33.5q-47 0 -79.5 33.5t-32.5 79.5z
" />
    <glyph glyph-name="oslash" unicode="&#xf8;" horiz-adv-x="1292" 
d="M98 530q0 148 75 275.5t201.5 202.5t272.5 75q162 0 305 -96l62 72h174l-137 -160q143 -159 143 -369q0 -111 -44 -213.5t-117.5 -177.5t-175 -119.5t-210.5 -44.5q-161 0 -303 95l-59 -70h-174l135 158q-70 75 -109 171.5t-39 200.5zM260 530q0 -145 84 -256l514 603
q-98 69 -211 69q-158 0 -272.5 -123.5t-114.5 -292.5zM438 180q95 -67 209 -67q157 0 271 123.5t114 293.5q0 134 -80 252z" />
    <glyph glyph-name="ugrave" unicode="&#xf9;" 
d="M156 385v674h153v-653q0 -129 73.5 -211t190.5 -82q133 0 230.5 81t97.5 191v674h154v-1059h-154v170q-46 -86 -141.5 -140.5t-206.5 -54.5q-175 0 -286 115t-111 295zM338 1438l162 37l248 -295h-119z" />
    <glyph glyph-name="uacute" unicode="&#xfa;" 
d="M156 385v674h153v-653q0 -129 73.5 -211t190.5 -82q133 0 230.5 81t97.5 191v674h154v-1059h-154v170q-46 -86 -141.5 -140.5t-206.5 -54.5q-175 0 -286 115t-111 295zM440 1180l248 295l162 -37l-291 -258h-119z" />
    <glyph glyph-name="ucircumflex" unicode="&#xfb;" 
d="M156 385v674h153v-653q0 -129 73.5 -211t190.5 -82q133 0 230.5 81t97.5 191v674h154v-1059h-154v170q-46 -86 -141.5 -140.5t-206.5 -54.5q-175 0 -286 115t-111 295zM328 1180l204 280h144l209 -280h-119l-162 176l-160 -176h-116z" />
    <glyph glyph-name="udieresis" unicode="&#xfc;" 
d="M156 385v674h153v-653q0 -129 73.5 -211t190.5 -82q133 0 230.5 81t97.5 191v674h154v-1059h-154v170q-46 -86 -141.5 -140.5t-206.5 -54.5q-175 0 -286 115t-111 295zM313 1317q0 37 28 65.5t67 28.5q38 0 66 -28.5t28 -65.5q0 -38 -28 -66t-66 -28q-40 0 -67.5 27.5
t-27.5 66.5zM707 1317q0 37 27.5 65.5t66.5 28.5q38 0 66 -28.5t28 -65.5q0 -38 -28 -66t-66 -28q-39 0 -66.5 27.5t-27.5 66.5z" />
    <glyph glyph-name="yacute" unicode="&#xfd;" horiz-adv-x="1214" 
d="M61 1059h170l371 -881l350 881h166l-483 -1178q-54 -132 -132 -190t-190 -60q-93 0 -168 35l37 131q53 -26 125 -26q53 0 88.5 21t65.5 73l61 131zM438 1180l248 295l162 -37l-291 -258h-119z" />
    <glyph glyph-name="thorn" unicode="&#xfe;" horiz-adv-x="1306" 
d="M170 -352v1784h154v-572q61 106 160 164.5t225 58.5q210 0 348.5 -155.5t138.5 -397.5q0 -243 -138.5 -399t-348.5 -156q-125 0 -224.5 59t-160.5 165v-551h-154zM324 530q0 -183 99.5 -300t256.5 -117q155 0 254.5 117t99.5 300t-99.5 299.5t-254.5 116.5
q-157 0 -256.5 -116.5t-99.5 -299.5z" />
    <glyph glyph-name="ydieresis" unicode="&#xff;" horiz-adv-x="1214" 
d="M61 1059h170l371 -881l350 881h166l-483 -1178q-54 -132 -132 -190t-190 -60q-93 0 -168 35l37 131q53 -26 125 -26q53 0 88.5 21t65.5 73l61 131zM311 1317q0 37 28 65.5t67 28.5q38 0 66 -28.5t28 -65.5q0 -38 -28 -66t-66 -28q-40 0 -67.5 27.5t-27.5 66.5zM705 1317
q0 37 27.5 65.5t66.5 28.5q38 0 66 -28.5t28 -65.5q0 -38 -28 -66t-66 -28q-39 0 -66.5 27.5t-27.5 66.5z" />
    <glyph glyph-name="OE" unicode="&#x152;" horiz-adv-x="2113" 
d="M106 684q0 145 58.5 279t156 231t230.5 155t276 58h1174v-152h-848v-462h764v-152h-764v-489h848v-152h-1174q-193 0 -358 87.5t-264 245.5t-99 351zM268 684q0 -154 76.5 -278t204 -191.5t278.5 -67.5h164v1113h-164q-112 0 -215 -46.5t-178.5 -124t-120.5 -184
t-45 -221.5z" />
    <glyph glyph-name="oe" unicode="&#x153;" horiz-adv-x="2154" 
d="M98 530q0 148 75 275.5t201.5 202.5t272.5 75q142 0 265 -71.5t198 -190.5q70 121 188 191.5t258 70.5q237 0 369.5 -165t132.5 -447h-866q18 -158 120.5 -258t256.5 -100q93 0 188.5 36.5t145.5 90.5l94 -101q-67 -73 -189.5 -118.5t-236.5 -45.5q-141 0 -264 72
t-195 195q-75 -121 -199 -194t-266 -73q-109 0 -210.5 45t-175.5 119.5t-118.5 177t-44.5 213.5zM260 530q0 -170 114.5 -293.5t272.5 -123.5q157 0 271 123.5t114 293.5q0 83 -31 160t-83 133t-123 89.5t-148 33.5q-158 0 -272.5 -123.5t-114.5 -292.5zM1194 608h713
q-16 150 -104 244t-240 94q-142 0 -244.5 -93t-124.5 -245z" />
    <glyph glyph-name="Ydieresis" unicode="&#x178;" horiz-adv-x="1374" 
d="M37 1407h199l452 -682l457 682h192l-565 -834v-573h-168v573zM397 1665q0 37 28 65.5t67 28.5q38 0 66 -28.5t28 -65.5q0 -38 -28 -66t-66 -28q-40 0 -67.5 27.5t-27.5 66.5zM791 1665q0 37 27.5 65.5t66.5 28.5q38 0 66 -28.5t28 -65.5q0 -38 -28 -66t-66 -28
q-39 0 -66.5 27.5t-27.5 66.5z" />
    <glyph glyph-name="circumflex" unicode="&#x2c6;" horiz-adv-x="815" 
d="M129 1180l205 280h143l209 -280h-119l-161 176l-160 -176h-117z" />
    <glyph glyph-name="tilde" unicode="&#x2dc;" horiz-adv-x="923" 
d="M133 1188q31 244 197 244q41 0 80.5 -21t65.5 -47t58 -47t60 -21q79 0 102 140l95 -15q-31 -243 -197 -243q-41 0 -80.5 21t-65.5 46.5t-58 46.5t-60 21q-80 0 -103 -139z" />
    <glyph glyph-name="uni2000" unicode="&#x2000;" horiz-adv-x="988" 
 />
    <glyph glyph-name="uni2001" unicode="&#x2001;" horiz-adv-x="1976" 
 />
    <glyph glyph-name="uni2002" unicode="&#x2002;" horiz-adv-x="988" 
 />
    <glyph glyph-name="uni2003" unicode="&#x2003;" horiz-adv-x="1976" 
 />
    <glyph glyph-name="uni2004" unicode="&#x2004;" horiz-adv-x="658" 
 />
    <glyph glyph-name="uni2005" unicode="&#x2005;" horiz-adv-x="494" 
 />
    <glyph glyph-name="uni2006" unicode="&#x2006;" horiz-adv-x="329" 
 />
    <glyph glyph-name="uni2007" unicode="&#x2007;" horiz-adv-x="329" 
 />
    <glyph glyph-name="uni2008" unicode="&#x2008;" horiz-adv-x="247" 
 />
    <glyph glyph-name="uni2009" unicode="&#x2009;" horiz-adv-x="395" 
 />
    <glyph glyph-name="uni200A" unicode="&#x200a;" horiz-adv-x="109" 
 />
    <glyph glyph-name="uni2010" unicode="&#x2010;" horiz-adv-x="759" 
d="M115 481v150h530v-150h-530z" />
    <glyph glyph-name="uni2011" unicode="&#x2011;" horiz-adv-x="759" 
d="M115 481v150h530v-150h-530z" />
    <glyph glyph-name="figuredash" unicode="&#x2012;" horiz-adv-x="759" 
d="M115 481v150h530v-150h-530z" />
    <glyph glyph-name="endash" unicode="&#x2013;" horiz-adv-x="1181" 
d="M115 483v146h952v-146h-952z" />
    <glyph glyph-name="emdash" unicode="&#x2014;" horiz-adv-x="1806" 
d="M115 483v146h1577v-146h-1577z" />
    <glyph glyph-name="quoteleft" unicode="&#x2018;" horiz-adv-x="540" 
d="M145 1073q0 62 33 126t125 179l76 -57q-82 -94 -107 -191q46 0 78.5 -33t32.5 -79q0 -44 -32.5 -76.5t-80.5 -32.5q-57 0 -91 46t-34 118z" />
    <glyph glyph-name="quoteright" unicode="&#x2019;" horiz-adv-x="540" 
d="M158 1274q0 44 32 76t80 32q57 0 91 -45.5t34 -117.5q0 -62 -33 -127t-124 -179l-76 58q81 93 106 190q-45 0 -77.5 33.5t-32.5 79.5z" />
    <glyph glyph-name="quotedblleft" unicode="&#x201c;" horiz-adv-x="950" 
d="M145 1073q0 62 33 126t125 179l76 -57q-82 -94 -107 -191q46 0 78.5 -33t32.5 -79q0 -44 -32.5 -76.5t-80.5 -32.5q-57 0 -91 46t-34 118zM555 1073q0 62 33 126t125 179l75 -57q-81 -93 -106 -191q46 0 78.5 -33t32.5 -79q0 -44 -32.5 -76.5t-80.5 -32.5q-57 0 -91 46
t-34 118z" />
    <glyph glyph-name="quotedblright" unicode="&#x201d;" horiz-adv-x="950" 
d="M158 1274q0 44 32 76t80 32q57 0 91 -45.5t34 -117.5q0 -62 -33 -127t-124 -179l-76 58q81 93 106 190q-45 0 -77.5 33.5t-32.5 79.5zM567 1274q0 44 32.5 76t80.5 32q57 0 91 -45.5t34 -117.5q0 -62 -33 -126.5t-125 -179.5l-76 58q83 95 107 190q-46 0 -78.5 33.5
t-32.5 79.5z" />
    <glyph glyph-name="ellipsis" unicode="&#x2026;" horiz-adv-x="1339" 
d="M150 88q0 44 33 76.5t79 32.5q44 0 76.5 -33t32.5 -76q0 -46 -32.5 -79.5t-76.5 -33.5q-47 0 -79.5 33.5t-32.5 79.5zM559 88q0 43 33 76t80 33q44 0 76 -33t32 -76q0 -46 -32 -79.5t-76 -33.5q-47 0 -80 33.5t-33 79.5zM969 88q0 44 32.5 76.5t79.5 32.5q44 0 76.5 -33
t32.5 -76q0 -46 -32.5 -79.5t-76.5 -33.5q-47 0 -79.5 33.5t-32.5 79.5z" />
    <glyph glyph-name="uni202F" unicode="&#x202f;" horiz-adv-x="395" 
 />
    <glyph glyph-name="uni205F" unicode="&#x205f;" horiz-adv-x="494" 
 />
    <glyph glyph-name="Euro" unicode="&#x20ac;" horiz-adv-x="1392" 
d="M-49 483v138h160q-5 67 -5 84q0 49 11 120h-166v138h205q81 207 264.5 338t406.5 131q144 0 275 -56.5t231 -158.5l-108 -111q-78 84 -181.5 131t-216.5 47q-158 0 -292.5 -88.5t-204.5 -232.5h637v-138h-686q-13 -63 -13 -120q0 -43 6 -84h693v-138h-656
q65 -159 206.5 -259.5t309.5 -100.5q113 0 216.5 47t181.5 131l108 -111q-101 -101 -232 -158t-274 -57q-232 0 -422.5 143.5t-263.5 364.5h-190z" />
    <glyph glyph-name="uni25FC" unicode="&#x25fc;" horiz-adv-x="1054" 
d="M0 0v1055h1055v-1055h-1055z" />
    </font>
</defs>
</svg>
